<?xml version="1.0" standalone="no"?>
<!DOCTYPE svg PUBLIC "-//W3C//DTD SVG 20010904//EN"
 "http://www.w3.org/TR/2001/REC-SVG-20010904/DTD/svg10.dtd">
<svg version="1.0" xmlns="http://www.w3.org/2000/svg"
 width="1592.000000pt" height="1592.000000pt" viewBox="0 0 1592.000000 1592.000000"
 preserveAspectRatio="xMidYMid meet">

<g transform="translate(0.000000,1592.000000) scale(0.100000,-0.100000)"
fill="#000000" stroke="none">
<path d="M7805 14170 c-102 -14 -193 -39 -245 -65 -56 -28 -60 -36 -29 -57 20
-13 16 -15 -62 -32 -209 -45 -380 -121 -480 -214 -62 -57 -69 -68 -44 -74 9
-2 -16 -27 -61 -62 -115 -91 -239 -241 -294 -358 -16 -34 -27 -65 -24 -70 3
-4 18 -8 34 -8 l29 0 -53 -102 c-30 -57 -68 -143 -86 -193 -30 -87 -82 -324
-96 -437 l-6 -58 -2212 -2 -2211 -3 -57 -28 c-79 -39 -143 -113 -168 -196 -20
-62 -20 -92 -10 -3260 15 -4585 12 -4237 34 -4294 21 -56 112 -159 156 -177
l30 -12 -90 -46 c-107 -54 -188 -117 -250 -194 -25 -31 -167 -271 -316 -534
-149 -264 -441 -778 -649 -1144 -207 -366 -382 -676 -387 -690 -23 -60 -28
-141 -18 -322 12 -215 27 -274 91 -343 46 -50 133 -98 214 -120 53 -13 841
-15 7405 -15 6564 0 7352 2 7405 15 142 37 240 120 275 232 25 81 45 413 30
494 -8 41 -95 203 -396 733 -213 375 -509 896 -658 1160 -149 263 -291 503
-316 534 -62 77 -143 140 -250 194 l-90 46 30 12 c44 18 135 121 156 177 22
57 19 -291 34 4294 10 3168 10 3198 -10 3260 -25 83 -89 157 -168 196 l-57 28
-1934 3 c-1524 2 -1937 5 -1943 15 -4 6 -8 30 -8 52 -1 36 -15 128 -36 225 -7
32 -6 34 9 21 15 -11 18 -10 27 14 36 96 -37 384 -131 517 -17 23 -19 32 -9
38 20 12 -4 69 -59 142 -116 151 -309 303 -473 370 -68 28 -75 33 -60 45 16
12 15 14 -8 33 -40 32 -159 88 -225 105 -33 9 -103 20 -155 24 -77 7 -110 15
-177 45 -45 20 -112 43 -150 51 -76 16 -218 19 -276 6 -28 -7 -63 -4 -130 10
-106 22 -305 32 -392 19z m-755 -1194 c41 -44 116 -90 132 -80 4 3 8 28 8 57
l0 51 58 -55 c102 -100 146 -120 158 -74 l6 25 39 -34 c52 -47 122 -82 193
-95 68 -13 79 -8 74 29 l-4 27 44 -28 c78 -49 189 -90 250 -92 l57 -2 3 33 3
33 49 -45 c27 -25 54 -46 59 -46 6 0 13 16 17 35 l6 35 60 -55 c69 -64 95 -69
193 -35 34 12 84 20 120 20 79 0 136 18 208 63 31 20 57 33 57 28 0 -5 -16
-32 -36 -61 -44 -64 -38 -73 54 -78 59 -4 76 0 123 23 30 15 62 34 72 43 26
23 31 8 14 -43 -14 -41 -15 -47 -1 -52 18 -7 179 3 212 13 17 5 22 2 22 -11 0
-15 7 -17 51 -11 67 9 132 31 196 67 l52 28 20 -32 c25 -42 61 -133 61 -156 0
-11 -6 -21 -14 -24 -17 -7 -11 -41 10 -58 8 -6 14 -27 14 -45 0 -30 -3 -34
-25 -34 -15 0 -25 -6 -25 -14 0 -8 11 -23 25 -34 22 -18 25 -27 25 -85 0 -64
-1 -66 -27 -69 -38 -4 -38 -20 1 -45 l33 -21 114 24 c63 13 117 24 121 24 18
0 -32 -271 -93 -495 -64 -240 -84 -343 -109 -561 -34 -300 -97 -559 -175 -715
-73 -143 -211 -325 -274 -358 -20 -11 -22 -11 -18 6 3 10 8 34 12 53 6 33 5
34 -10 15 -74 -96 -102 -127 -134 -149 -20 -14 -41 -26 -45 -26 -5 0 -6 18 -3
40 3 22 4 40 2 40 -2 0 -20 -24 -41 -52 l-38 -53 -8 38 c-19 92 -97 191 -185
235 -120 61 -247 77 -493 63 -102 -6 -216 -11 -255 -11 l-70 0 40 20 c22 11
59 36 83 55 51 41 80 44 147 14 40 -18 51 -19 76 -8 38 15 69 75 69 131 0 38
-35 137 -44 127 -2 -2 0 -29 5 -59 10 -64 -2 -118 -31 -145 -20 -18 -22 -18
-66 3 -49 24 -103 28 -137 11 -12 -6 -45 -29 -73 -50 -76 -58 -94 -54 -180 38
l-72 76 -80 -7 c-76 -6 -82 -5 -96 16 -22 31 -20 73 9 142 l24 58 -25 -23
c-13 -12 -33 -42 -45 -65 -26 -55 -18 -126 18 -162 22 -22 28 -23 101 -17 l78
7 35 -38 c19 -22 41 -48 49 -60 8 -11 26 -28 40 -38 l25 -17 -40 7 c-22 4
-141 36 -265 72 l-225 66 -150 0 c-149 1 -151 1 -215 -31 -76 -37 -118 -77
-159 -152 l-29 -54 -16 38 c-9 21 -19 49 -22 62 -10 40 -24 36 -24 -6 0 -23
-4 -41 -9 -41 -19 0 -76 78 -112 155 l-38 80 -1 -54 c0 -54 0 -54 -21 -36 -30
28 -95 168 -125 270 -38 135 -57 351 -49 570 3 99 11 207 16 240 5 33 14 272
18 530 8 393 20 607 35 623 2 1 53 -31 113 -73 99 -66 111 -72 116 -55 3 13
14 20 29 20 23 0 48 16 48 31 0 4 -13 12 -28 18 l-29 12 15 55 c12 42 22 59
43 69 40 21 54 65 19 65 -33 0 -24 39 18 77 36 33 36 35 17 49 -19 14 -19 15
5 61 21 39 115 153 126 153 2 0 22 -20 44 -44z m-777 -1160 c37 -15 94 -76
102 -109 3 -12 1 -62 -3 -112 l-7 -90 -35 64 c-38 72 -127 171 -152 171 -34 0
-28 -22 17 -72 26 -29 53 -65 61 -80 14 -27 13 -32 -20 -86 -70 -115 -86 -260
-37 -333 12 -19 20 -26 17 -16 -19 58 -18 128 2 194 21 69 57 133 78 140 6 2
21 -19 33 -47 21 -49 21 -56 10 -177 -7 -71 -9 -189 -6 -270 4 -111 2 -143 -8
-143 -21 0 -65 40 -100 93 -38 56 -47 49 -15 -12 29 -58 67 -99 104 -111 l33
-11 6 -91 c3 -51 4 -94 2 -97 -8 -7 -63 21 -85 44 -37 39 -170 286 -195 360
-64 196 -71 509 -14 661 44 118 125 167 212 130z m-348 -242 c-10 -72 -8 -279
5 -379 19 -148 53 -245 147 -415 47 -85 99 -170 116 -188 35 -36 120 -82 152
-82 19 0 22 -10 38 -157 19 -182 44 -290 97 -420 77 -188 180 -340 353 -519
64 -67 117 -124 117 -126 0 -3 -18 -10 -39 -17 -49 -14 -98 -69 -148 -166
l-37 -73 -85 -11 c-140 -19 -470 -88 -561 -117 -47 -14 -124 -35 -172 -44
-127 -26 -209 -70 -294 -154 -85 -85 -108 -130 -225 -441 -45 -120 -111 -285
-147 -365 -35 -80 -93 -210 -128 -289 -79 -178 -170 -418 -217 -571 -83 -273
-157 -550 -157 -589 0 -24 -14 -123 -30 -222 -17 -98 -34 -241 -40 -316 -10
-153 1 -444 25 -661 8 -74 15 -136 15 -138 0 -2 -562 -4 -1248 -4 l-1249 0 -6
1023 c-4 562 -10 2027 -13 3255 l-7 2232 1873 0 1872 0 -7 -46z m7782 -2246
c-4 -1261 -10 -2726 -14 -3255 l-6 -963 -2300 0 -2300 0 7 133 c26 507 112
1028 274 1657 58 225 77 345 85 521 l2 56 144 -102 c189 -134 326 -216 552
-329 123 -61 230 -107 315 -134 282 -89 452 -145 508 -169 150 -63 339 -26
459 90 57 56 89 107 126 199 16 40 51 121 79 179 107 229 165 413 230 729 47
226 70 374 76 480 4 69 47 233 117 445 19 59 20 60 95 100 93 49 180 127 274
245 38 49 83 96 99 105 16 8 94 35 173 60 259 84 285 94 318 131 43 49 42 109
-1 158 -18 21 -43 38 -62 41 -20 4 -103 -10 -216 -34 -102 -22 -186 -39 -188
-38 -1 2 38 29 87 61 134 86 292 200 328 236 26 26 32 40 32 74 0 85 -85 160
-156 138 -19 -5 -123 -62 -232 -126 -110 -64 -202 -116 -206 -116 -8 0 20 40
167 238 136 184 170 243 170 297 0 77 -60 135 -141 135 -36 0 -49 -6 -89 -42
-25 -24 -110 -128 -188 -233 -79 -104 -155 -201 -170 -215 l-27 -25 6 25 c3
14 26 108 51 210 25 102 51 226 57 276 10 81 10 97 -6 138 -25 65 -93 95 -168
75 -71 -19 -83 -45 -153 -339 -35 -151 -114 -355 -172 -449 l-47 -74 -31 36
c-17 19 -38 60 -48 89 -22 70 -63 134 -123 192 -63 59 -117 86 -178 86 -43 0
-53 -4 -82 -36 -46 -48 -46 -95 -1 -155 102 -135 118 -187 121 -384 3 -182 12
-219 95 -424 28 -68 48 -128 45 -132 -3 -5 -15 -9 -28 -9 -12 0 -29 -6 -38
-12 -8 -7 -52 -110 -97 -228 -49 -129 -102 -247 -131 -295 -81 -133 -222 -429
-323 -677 l-15 -36 -113 74 c-106 70 -208 132 -519 315 -69 40 -228 143 -354
227 -253 170 -296 193 -424 221 -85 19 -501 136 -506 143 -2 1 -20 35 -41 73
-21 39 -48 84 -61 101 l-22 31 56 34 c176 106 362 272 472 420 99 134 142 220
220 439 l38 105 49 6 c117 15 145 34 302 206 160 177 225 299 293 553 27 100
31 132 32 245 0 112 -3 138 -22 186 -26 64 -75 120 -132 149 -47 24 -144 27
-194 6 l-34 -14 19 71 c11 40 22 78 24 85 3 9 390 12 1886 12 l1882 0 -6
-2292z m-3603 2027 c48 -32 69 -89 74 -196 5 -114 -12 -213 -64 -368 -55 -166
-103 -246 -230 -389 -113 -126 -180 -178 -221 -170 -18 3 -18 7 10 95 16 51
33 90 38 87 20 -12 79 19 124 65 69 70 78 95 14 37 -75 -68 -138 -90 -125 -43
32 107 77 303 92 397 15 105 20 119 53 159 l35 45 20 -45 c29 -66 29 -207 -1
-274 l-23 -50 30 32 c62 68 76 206 34 337 l-19 59 45 39 c25 22 62 48 84 59
35 19 37 22 23 36 -27 28 -83 -1 -174 -91 -76 -75 -81 -79 -78 -51 3 17 7 56
11 88 4 46 12 66 37 94 61 70 148 89 211 48z m2054 -672 c23 -31 9 -132 -53
-383 -60 -240 -69 -298 -50 -327 44 -67 131 3 326 265 193 260 219 282 270
231 33 -33 10 -79 -130 -266 -260 -350 -286 -394 -249 -431 24 -24 57 -10 239
94 378 218 356 206 378 194 12 -6 24 -23 28 -37 9 -37 -20 -60 -309 -253 -230
-153 -233 -156 -233 -190 0 -27 5 -37 26 -47 22 -11 61 -5 282 43 275 60 287
60 287 8 0 -34 -24 -46 -225 -109 -267 -85 -285 -95 -374 -210 -41 -53 -97
-117 -126 -143 -49 -45 -159 -112 -185 -112 -6 0 -32 14 -57 32 -82 56 -311
138 -386 138 -13 0 -28 22 -56 83 -102 221 -138 363 -128 509 2 46 0 108 -5
137 -11 61 -62 171 -115 244 -41 59 -40 81 5 85 72 7 165 -84 222 -217 35 -83
50 -104 132 -190 140 -145 181 -240 157 -364 -10 -49 -10 -60 2 -68 8 -5 19
-7 24 -6 17 6 34 70 34 133 1 85 -29 166 -94 252 l-54 73 32 42 c98 129 186
360 257 680 25 112 45 143 88 132 15 -3 33 -13 40 -22z m-4818 -520 c30 -8 93
-28 139 -44 109 -38 252 -75 376 -96 82 -14 168 -17 470 -18 332 0 373 -2 402
-18 69 -37 76 -74 38 -194 -30 -97 -66 -154 -135 -216 -96 -87 -224 -135 -380
-143 -86 -5 -99 -3 -140 18 -31 16 -52 37 -68 66 l-23 42 78 0 c234 0 412 77
543 235 34 42 69 75 79 75 24 0 53 33 46 52 -7 18 -58 48 -82 48 -10 0 -28 -7
-40 -15 -39 -27 -175 -38 -417 -32 -159 3 -271 11 -361 25 -212 33 -554 130
-591 166 -19 19 -84 21 -108 3 -25 -18 -17 -49 17 -65 19 -9 39 -37 68 -97 51
-104 127 -190 222 -249 77 -47 214 -100 290 -111 26 -4 47 -10 47 -14 0 -12
-43 -48 -80 -66 -44 -23 -162 -15 -246 16 -137 51 -314 202 -370 316 -59 120
-29 301 56 330 39 13 87 9 170 -14z m125 -194 c276 -83 531 -119 835 -118 107
0 219 4 248 8 28 4 52 4 52 -1 0 -5 -28 -36 -62 -69 -125 -122 -272 -166 -513
-155 -154 7 -250 23 -366 61 -82 28 -176 80 -223 123 -49 47 -136 172 -136
198 0 3 8 3 18 -1 9 -3 76 -24 147 -46z m-107 -973 c185 -93 391 -139 632
-140 169 -1 253 11 391 54 l87 27 83 -29 c46 -15 88 -33 92 -37 15 -15 -42
-124 -153 -291 -96 -145 -165 -270 -218 -399 l-22 -55 -38 63 c-48 82 -173
215 -276 295 -155 120 -394 273 -645 413 -75 42 -142 81 -150 87 -11 9 1 15
55 27 93 23 86 23 162 -15z m817 -976 c0 -16 -6 -26 -18 -28 -19 -4 -32 20
-23 44 9 25 41 13 41 -16z m105 -645 c0 -18 -5 -25 -19 -25 -11 0 -23 5 -26
10 -11 18 3 40 25 40 15 0 20 -7 20 -25z m-2 -509 c-2 -13 -10 -21 -23 -21
-23 0 -33 34 -14 45 20 13 40 -1 37 -24z m-2203 -281 c52 -153 108 -363 131
-490 19 -106 31 -607 19 -840 l-7 -145 -335 0 -335 0 6 28 c3 15 17 95 30 177
56 346 70 581 53 861 l-9 130 131 169 c73 92 155 204 183 248 l52 79 19 -43
c10 -24 39 -102 62 -174z m2180 -220 c0 -21 -31 -33 -46 -18 -5 5 -7 17 -3 27
9 24 49 17 49 -9z m-30 -540 c0 -23 -34 -33 -45 -14 -13 20 1 40 24 37 13 -2
21 -10 21 -23z m-20 -520 c0 -13 -8 -21 -22 -23 -17 -3 -23 2 -23 16 0 10 3
22 7 26 13 13 38 1 38 -19z m-3418 -702 c-3 -16 -11 -65 -17 -110 l-12 -83
-896 0 -895 0 5 63 c3 35 15 84 26 110 l21 47 887 0 887 0 -6 -27z m8115 -20
c11 -26 23 -75 26 -110 l5 -63 -895 0 -896 0 -12 83 c-6 45 -14 94 -17 110
l-5 27 886 0 887 0 21 -47z m-9988 -175 c12 -62 -56 -58 957 -58 908 0 929 0
939 19 5 11 10 31 10 45 l0 26 3130 0 3130 0 0 -26 c0 -14 5 -34 10 -45 10
-19 31 -19 935 -19 508 0 931 3 939 6 9 4 19 23 22 45 l7 39 306 0 c337 0 451
-12 605 -64 158 -53 306 -167 367 -282 28 -53 366 -648 935 -1649 l358 -630 4
-76 c4 -74 3 -77 -28 -112 -43 -50 -140 -95 -220 -105 -36 -4 -803 -3 -1705 2
-902 4 -3615 7 -6030 5 -2414 -1 -4991 -3 -5725 -3 l-1335 -1 -48 24 c-97 47
-152 130 -145 215 4 45 48 127 363 681 664 1170 907 1600 934 1649 37 69 135
166 219 215 82 48 214 93 322 111 41 6 82 13 90 15 8 1 157 3 331 4 l317 1 6
-32z"/>
<path d="M6693 12359 c-44 -16 -18 -49 38 -49 44 0 55 11 31 32 -25 22 -44 26
-69 17z"/>
<path d="M7169 12160 c-156 -24 -304 -117 -399 -250 -25 -35 -19 -38 21 -9 42
30 146 75 220 95 45 12 99 17 184 17 141 -1 220 -19 483 -113 192 -68 219 -72
228 -34 10 39 -13 99 -49 130 -112 94 -516 191 -688 164z"/>
<path d="M9651 12001 c-28 -18 -4 -41 44 -41 33 0 47 5 52 16 8 20 -13 34 -52
34 -16 0 -36 -4 -44 -9z"/>
<path d="M8665 11959 c-164 -22 -227 -61 -229 -141 -1 -43 -1 -43 38 -46 21
-2 104 4 185 14 194 22 404 22 496 0 114 -27 240 -95 324 -172 82 -76 86 -69
23 46 -75 138 -218 247 -373 285 -78 20 -362 28 -464 14z"/>
<path d="M7048 11761 c-113 -37 -225 -123 -288 -222 l-31 -48 40 -68 c23 -38
56 -83 73 -100 40 -39 124 -63 219 -63 119 0 266 -20 371 -50 140 -41 199 -40
263 3 27 17 64 40 82 50 19 10 37 24 40 33 8 22 -33 159 -69 226 -40 76 -112
141 -201 183 -107 51 -177 66 -317 71 -104 4 -135 1 -182 -15z m366 -96 c167
-46 281 -156 314 -303 8 -36 7 -43 -12 -61 -33 -31 -107 -61 -151 -61 -23 0
-65 6 -95 14 -98 26 -176 36 -352 49 -208 15 -231 25 -274 113 l-27 55 39 56
c47 69 124 121 212 145 81 22 252 18 346 -7z"/>
<path d="M7354 11537 c-16 -55 -76 -76 -115 -41 -17 16 -19 15 -29 -10 -14
-37 -13 -52 6 -92 20 -41 59 -64 110 -64 53 0 104 53 104 109 0 49 -16 86 -46
106 -21 14 -23 13 -30 -8z"/>
<path d="M8733 11565 c-131 -28 -228 -103 -306 -235 -58 -96 -58 -95 20 -177
38 -39 82 -77 98 -84 19 -8 96 -13 210 -14 149 -2 203 -7 314 -29 73 -14 150
-26 170 -26 56 1 116 34 183 100 70 70 69 70 11 189 -70 145 -203 245 -369
276 -93 18 -248 18 -331 0z m310 -91 c178 -41 280 -120 332 -256 l18 -48 -27
-41 c-18 -27 -43 -48 -73 -61 -53 -23 -85 -22 -268 12 -60 11 -171 22 -245 25
-180 8 -213 17 -273 77 l-48 48 28 52 c53 97 149 173 250 197 64 15 229 12
306 -5z"/>
<path d="M8966 11346 c-3 -14 -13 -32 -22 -40 -20 -21 -73 -20 -95 0 -17 16
-19 15 -29 -10 -14 -37 -13 -52 6 -92 38 -79 161 -87 200 -13 30 59 15 128
-37 167 -14 11 -18 9 -23 -12z"/>
<path d="M8326 11398 c-32 -49 -46 -114 -57 -266 -12 -172 -7 -265 18 -321 17
-35 17 -33 24 154 4 105 15 248 24 318 9 71 14 131 12 134 -3 3 -12 -6 -21
-19z"/>
<path d="M2387 4118 c-110 -246 -456 -997 -526 -1142 -39 -81 -68 -152 -65
-157 3 -5 2619 -9 6145 -9 4844 0 6139 3 6139 12 0 14 -196 447 -410 908 -75
162 -159 343 -185 403 l-48 107 -5497 0 -5497 0 -56 -122z m652 52 l-11 -30
-258 0 -258 0 -19 -45 c-16 -40 -21 -45 -50 -45 -18 0 -33 4 -33 9 0 4 14 38
30 75 l30 66 290 0 289 0 -10 -30z m751 16 c0 -47 8 -46 -335 -46 l-323 0 -18
-45 c-14 -39 -21 -45 -46 -45 -33 0 -33 5 8 98 l23 52 345 0 c292 0 346 -2
346 -14z m750 0 c0 -47 9 -46 -340 -46 l-328 0 -14 -42 c-11 -32 -21 -44 -38
-46 -17 -3 -21 0 -17 11 3 9 11 35 17 59 23 85 -11 78 375 78 291 0 345 -2
345 -14z m750 7 c0 -5 -3 -18 -6 -30 l-6 -23 -334 0 -334 0 -11 -45 c-8 -33
-16 -45 -29 -45 -18 0 -18 3 1 67 10 38 19 71 19 75 0 5 158 8 350 8 193 0
350 -3 350 -7z m730 0 c0 -5 -3 -18 -6 -30 l-6 -23 -328 0 c-363 0 -329 6
-344 -62 -6 -26 -26 -40 -26 -18 0 11 20 110 25 128 3 9 81 12 345 12 187 0
340 -3 340 -7z m760 -23 l0 -30 -337 -2 -338 -3 -9 -42 c-8 -36 -14 -43 -33
-43 -13 0 -23 4 -23 10 0 11 20 110 25 128 3 9 84 12 360 12 l355 0 0 -30z
m758 -2 l-3 -33 -341 -3 -341 -2 -7 -40 c-4 -26 -11 -40 -21 -40 -15 0 -15 10
1 118 l5 32 355 0 355 0 -3 -32z m772 2 l0 -30 -350 0 -350 0 0 -22 c0 -34
-11 -68 -21 -68 -5 0 -9 34 -9 75 l0 75 365 0 365 0 0 -30z m738 -2 l3 -28
-335 0 -336 0 0 -45 c0 -25 -4 -45 -10 -45 -5 0 -10 10 -10 23 0 12 -3 46 -6
75 l-7 52 349 -2 349 -3 3 -27z m750 0 l3 -28 -355 0 -356 0 0 30 0 30 353 -2
352 -3 3 -27z m759 -33 c7 -33 12 -67 13 -75 0 -24 -18 2 -27 40 l-9 35 -342
3 c-188 1 -342 6 -342 10 0 4 -3 17 -6 30 l-6 22 353 -2 353 -3 13 -60z m749
-13 c20 -65 21 -73 6 -70 -9 2 -21 20 -28 43 l-11 40 -336 3 c-186 1 -337 6
-337 10 0 4 -3 17 -6 30 l-6 22 348 -2 348 -3 22 -73z m751 8 c27 -81 27 -80
4 -80 -14 0 -23 12 -33 43 l-15 42 -333 5 -334 5 -7 28 -7 27 351 -2 352 -3
22 -65z m727 62 c2 -4 16 -38 30 -75 l25 -67 -27 0 c-24 0 -30 7 -43 43 l-16
42 -323 3 c-337 2 -339 3 -340 45 0 16 23 17 344 17 190 0 347 -4 350 -8z
m656 -58 c16 -37 30 -71 30 -75 0 -5 -14 -9 -30 -9 -27 0 -33 6 -50 45 l-19
45 -261 0 -260 0 -10 26 c-6 14 -10 27 -10 30 0 2 130 4 290 4 l290 0 30 -66z
m-10090 -129 c0 -2 -5 -16 -12 -30 l-11 -25 -449 0 -450 0 -31 -70 c-30 -69
-32 -70 -68 -70 l-38 0 41 88 c22 48 45 93 51 100 7 9 117 12 488 12 264 0
479 -2 479 -5z m750 -2 c0 -5 -3 -18 -6 -30 l-6 -23 -331 -2 -332 -3 -24 -67
c-23 -61 -28 -68 -53 -68 l-27 0 25 66 c13 37 31 82 39 100 l14 34 350 0 c193
0 351 -3 351 -7z m756 -9 c-3 -9 -6 -22 -6 -30 0 -12 -53 -14 -339 -14 l-338
0 -19 -67 c-17 -57 -24 -69 -43 -71 -17 -3 -22 0 -19 10 3 7 18 52 34 101 l28
87 354 0 c319 0 354 -2 348 -16z m774 9 c0 -5 -3 -18 -6 -30 l-6 -23 -349 0
-348 0 -10 -37 c-5 -21 -12 -53 -16 -70 -4 -19 -13 -33 -21 -33 -8 0 -14 3
-14 6 0 7 39 164 45 182 3 9 85 12 365 12 198 0 360 -3 360 -7z m762 2 c3 -3
3 -17 0 -30 l-4 -25 -351 -2 -351 -3 -14 -67 c-9 -39 -20 -68 -27 -68 -9 0 -7
22 7 88 11 48 21 93 23 100 3 9 84 12 358 12 195 0 356 -2 359 -5z m748 -25
l0 -30 -339 0 -340 0 -11 -57 c-14 -74 -17 -83 -28 -83 -5 0 -3 39 4 88 8 48
14 93 14 100 0 9 77 12 350 12 l350 0 0 -30z m780 0 l0 -30 -349 0 -348 0 -7
-37 c-3 -21 -6 -53 -6 -70 0 -25 -4 -33 -18 -33 -16 0 -18 7 -15 58 2 31 6 76
9 100 l5 42 365 0 364 0 0 -30z m780 0 l0 -30 -370 0 -370 0 0 30 0 30 370 0
370 0 0 -30z m750 0 l0 -30 -352 2 -353 3 -3 28 -3 27 355 0 356 0 0 -30z
m770 23 c0 -5 3 -18 6 -30 l6 -23 -366 0 c-309 0 -366 2 -366 14 0 8 -3 21 -6
30 -6 14 30 16 360 16 201 0 366 -3 366 -7z m777 -88 c26 -106 27 -108 11
-103 -7 3 -19 33 -28 69 l-16 64 -345 5 -344 5 -3 28 -3 27 352 -2 353 -3 23
-90z m737 73 c3 -13 17 -58 30 -100 23 -74 24 -78 6 -78 -14 0 -24 16 -41 70
l-23 70 -338 0 c-285 0 -338 2 -338 14 0 8 -3 21 -6 30 -6 14 29 16 349 16
l355 0 6 -22z m761 -12 c8 -18 26 -64 39 -100 l26 -67 -27 3 c-23 3 -30 13
-51 71 l-25 67 -333 0 c-184 0 -334 3 -334 8 0 4 -3 17 -6 30 l-6 22 351 0
352 0 14 -34z m1036 -46 c56 -116 56 -120 19 -120 -29 0 -34 5 -63 70 l-32 70
-451 0 -451 0 -11 25 c-7 14 -12 28 -12 31 0 2 217 3 483 2 l482 -3 36 -75z
m-10001 -164 c0 -3 -4 -16 -10 -30 l-10 -26 -597 0 -598 0 -39 -91 c-22 -50
-45 -93 -52 -96 -7 -2 -24 -3 -37 -1 l-25 3 55 123 56 122 628 0 c346 0 629
-2 629 -4z m791 -23 l-7 -28 -354 -5 -354 -5 -32 -90 c-28 -80 -35 -90 -58
-93 l-26 -3 24 63 c12 35 33 91 46 126 l22 62 373 0 373 0 -7 -27z m799 20 c0
-5 -3 -18 -6 -30 l-6 -23 -357 0 -357 0 -24 -91 c-22 -83 -40 -112 -57 -95 -5
5 37 167 58 224 l9 22 370 0 c203 0 370 -3 370 -7z m820 -7 c0 -47 12 -46
-385 -46 l-373 0 -21 -95 c-15 -64 -27 -95 -36 -95 -8 0 -13 6 -10 13 2 6 13
55 25 107 11 52 23 103 26 113 5 16 32 17 390 17 325 0 384 -2 384 -14z m800
7 c0 -5 -3 -18 -6 -30 l-6 -23 -363 0 c-338 0 -364 -1 -369 -17 -2 -10 -10
-53 -17 -95 -8 -55 -16 -78 -26 -78 -9 0 -12 7 -9 18 3 9 12 60 21 112 9 52
18 101 20 108 3 9 88 12 380 12 206 0 375 -3 375 -7z m780 -23 l0 -30 -359 0
-359 0 -5 -22 c-3 -13 -9 -56 -13 -95 -3 -40 -11 -73 -15 -73 -12 0 -11 29 2
150 l12 100 368 0 369 0 0 -30z m805 10 c3 -11 3 -24 0 -30 -9 -14 -751 -14
-760 0 -3 6 -3 19 0 30 6 20 16 20 380 20 364 0 374 0 380 -20z m799 4 c17
-45 29 -44 -374 -44 l-380 0 0 30 0 30 374 0 c332 0 375 -2 380 -16z m796 2
c0 -8 3 -21 6 -30 6 -14 -32 -16 -375 -16 l-381 0 0 30 0 30 375 0 c317 0 375
-2 375 -14z m814 -98 c28 -123 30 -138 18 -138 -5 0 -20 42 -33 93 l-25 92
-362 3 -362 2 0 30 0 30 369 0 369 0 26 -112z m772 98 c3 -7 20 -64 39 -125
30 -99 31 -111 16 -111 -14 0 -24 22 -46 95 l-28 95 -361 2 -361 3 -3 28 -3
27 371 0 c306 0 372 -2 376 -14z m814 -48 c13 -35 34 -91 46 -125 l23 -63 -23
0 c-21 0 -28 11 -57 95 l-34 95 -355 2 -355 3 -3 28 -3 27 369 0 370 0 22 -62z
m1342 -58 c31 -63 57 -118 57 -122 1 -5 -14 -8 -33 -8 -32 0 -34 3 -77 95
l-44 95 -598 0 -597 0 -10 26 c-6 14 -10 27 -10 30 0 2 282 3 628 2 l627 -3
57 -115z m-9792 -189 c0 -43 38 -41 -849 -41 l-836 0 -49 -110 -49 -110 -38 0
-38 0 55 118 c31 64 59 125 61 135 5 16 55 17 874 17 521 0 869 -4 869 -9z
m816 -7 c-3 -9 -6 -20 -6 -25 0 -5 -150 -9 -365 -9 l-364 0 -34 -107 c-29 -93
-37 -108 -57 -111 -16 -3 -21 0 -17 10 3 8 22 69 43 136 l37 122 385 0 c346 0
384 -2 378 -16z m822 -6 l-3 -23 -374 -5 -375 -5 -26 -105 c-20 -80 -30 -106
-44 -108 -13 -3 -17 1 -12 15 3 10 17 65 31 123 14 58 28 111 30 118 3 9 91
12 390 12 l386 0 -3 -22z m812 10 c-1 -37 -9 -38 -375 -40 l-359 -3 -21 -105
c-18 -92 -23 -105 -42 -108 -21 -3 -21 -2 -8 55 7 32 20 93 30 136 l16 77 380
0 c297 0 379 -3 379 -12z m828 -15 l-3 -28 -375 -5 -375 -5 -14 -102 c-13 -87
-18 -103 -33 -103 -22 0 -22 5 -1 153 l16 117 394 0 394 0 -3 -27z m772 -3 l0
-30 -354 0 -354 0 -6 -87 c-8 -100 -13 -123 -27 -123 -6 0 -8 8 -5 18 2 9 8
70 11 135 l7 117 364 0 364 0 0 -30z m780 0 l0 -30 -370 0 -370 0 0 30 0 30
370 0 370 0 0 -30z m828 4 c3 -22 1 -22 -260 -29 -145 -3 -321 -5 -393 -3
l-130 3 -3 28 -3 27 393 -2 c393 -3 393 -3 396 -24z m835 -101 c15 -71 27
-131 27 -135 0 -5 -9 -8 -20 -8 -21 0 -20 -3 -48 130 l-17 85 -368 3 -367 2 0
25 0 25 383 0 382 0 28 -127z m781 110 c3 -10 17 -63 31 -118 15 -55 29 -108
31 -117 3 -11 0 -18 -9 -18 -10 0 -23 33 -42 111 l-28 112 -368 -8 c-327 -6
-369 -5 -369 8 0 9 -3 22 -6 31 -6 14 31 16 374 16 354 0 381 -1 386 -17z
m850 -105 c21 -67 40 -127 43 -135 3 -8 -2 -13 -15 -13 -17 0 -26 16 -51 99
-17 55 -31 104 -31 110 0 8 -109 11 -369 11 -387 0 -381 -1 -381 41 0 5 157 9
383 9 l384 0 37 -122z m743 -10 c38 -102 47 -134 36 -136 -29 -7 -40 8 -78
106 l-39 99 -315 8 c-219 5 -318 11 -323 19 -23 35 -15 36 330 36 l338 0 51
-132z m1070 -3 l62 -135 -37 0 -37 0 -45 105 -45 105 -477 0 -476 0 -11 30
-10 30 508 0 507 0 61 -135z m-11007 -188 c0 -7 -6 -21 -12 -30 -12 -15 -49
-17 -381 -19 l-369 -3 -55 -122 -55 -123 -40 0 c-28 0 -39 4 -35 13 3 6 35 76
72 155 l68 142 404 0 c325 0 403 -3 403 -13z m840 -4 c-1 -43 -1 -43 -385 -45
l-368 -3 -46 -122 -46 -123 -34 0 c-22 0 -32 4 -28 13 3 6 30 76 62 155 l57
142 394 0 c369 0 394 -1 394 -17z m840 10 c0 -5 -3 -18 -6 -30 l-6 -23 -374 0
-373 0 -39 -122 c-32 -105 -41 -123 -60 -126 -12 -2 -22 0 -22 5 0 7 77 243
95 291 3 9 92 12 395 12 214 0 390 -3 390 -7z m826 -9 c-3 -9 -6 -22 -6 -30 0
-12 -58 -14 -375 -14 l-374 0 -9 -32 c-5 -18 -19 -75 -33 -125 -18 -70 -28
-93 -40 -93 -17 0 -9 39 52 273 l10 37 390 0 c353 0 391 -2 385 -16z m4733
-36 c24 -120 41 -221 41 -239 0 -31 -17 -21 -24 14 -3 17 -16 74 -27 125 l-21
92 -1153 0 c-633 0 -1671 -3 -2306 -7 l-1155 -6 -28 -119 c-26 -111 -29 -118
-52 -118 -13 0 -24 4 -24 9 0 11 58 269 65 289 3 9 480 12 2339 12 l2335 0 10
-52z m745 44 c6 -10 66 -276 66 -293 0 -6 -10 -9 -22 -7 -20 3 -26 15 -44 83
-12 44 -27 99 -33 122 l-12 43 -327 2 -327 3 -3 28 -3 27 350 0 c192 0 352 -4
355 -8z m808 -127 c54 -190 52 -175 25 -175 -22 0 -27 11 -63 125 l-39 125
-337 0 -338 0 0 30 0 30 357 -2 357 -3 38 -130z m777 -13 c28 -81 51 -151 51
-155 0 -4 -8 -7 -19 -7 -14 0 -28 26 -63 123 l-46 122 -338 5 -338 5 -7 28 -7
27 357 0 358 0 52 -148z m787 -5 c35 -82 64 -151 64 -153 0 -2 -13 -4 -28 -4
-27 0 -32 7 -83 123 l-55 122 -332 3 -333 2 -9 26 c-6 14 -10 27 -10 30 0 2
163 3 361 2 l362 -3 63 -148z m737 141 c3 -7 35 -77 71 -155 l65 -143 -37 0
-38 0 -55 123 -55 122 -340 3 -341 2 -11 26 c-7 14 -12 27 -12 29 0 3 168 5
374 5 290 0 375 -3 379 -12z"/>
<path d="M5755 2658 c-7 -34 -153 -849 -157 -878 -2 -16 2 -26 13 -28 23 -4
33 34 99 402 33 181 62 331 64 333 3 3 99 26 215 52 115 25 213 50 218 55 4 5
3 6 -4 2 -9 -5 -11 -2 -7 9 6 14 8 14 19 -1 8 -11 14 -13 19 -6 4 7 17 8 37 2
25 -7 29 -7 20 4 -14 17 -2 29 16 15 10 -9 13 -8 13 2 0 11 2 11 10 -1 5 -8
10 -10 10 -4 0 5 10 11 23 13 12 2 852 5 1867 7 1015 2 1860 6 1878 9 19 4 32
12 32 20 0 13 -280 15 -2190 15 l-2190 0 -5 -22z m282 -32 c0 -8 -6 -12 -15
-8 -9 3 -13 1 -9 -5 3 -5 0 -10 -8 -10 -8 0 -12 4 -9 8 2 4 -11 6 -31 5 -19
-2 -37 -1 -40 3 -2 4 16 7 41 6 24 0 50 3 57 7 6 4 12 8 13 8 0 0 1 -6 1 -14z
m153 -10 c0 -2 -8 -10 -17 -17 -16 -13 -17 -12 -4 4 13 16 21 21 21 13z"/>
<path d="M6373 2595 c0 -8 4 -12 9 -9 5 3 6 10 3 15 -9 13 -12 11 -12 -6z"/>
</g>
</svg>
